<!-- assets/images/icon-js.svg -->
<svg width="100" height="100" viewBox="0 0 32 32" xmlns="http://www.w3.org/2000/svg">
  <path d="M16 2C7.163 2 0 9.163 0 18C0 26.837 7.163 34 16 34C24.837 34 32 26.837 32 18C32 9.163 24.837 2 16 2ZM12.9 26.1C12.9 26.654 12.654 27 12 27C11.446 27 11 26.654 11 26.1V17.9H9V26.1C9 27.4 9.9 28 11 28C12.1 28 13 27.4 13 26.1V20.9H12.1V26.1ZM16 26C14.846 26 14 25.382 14 24.172C14 23.252 14.575 22.766 15.775 22.266L16 22.164V21.9C16 21.2 15.746 21 15 21C14.336 21 13.9 21.336 13.9 21.9H13V20.9C13 19.9 13.9 19 15 19C16.1 19 17 19.9 17 21V23.9C17 25.154 16.154 26 15 26ZM22.4 20C22.1 19.6 21.8 19.4 21.3 19.4C20.8 19.4 20.5 19.7 20.5 20C20.5 20.5 21.2 20.6 22 21C22.7 21.3 23.3 21.8 23.3 22.9C23.3 23.9 22.6 24.9 21.2 24.9C20.3 24.9 19.7 24.4 19.4 24.1V23.1C19.8 23.7 20.5 24.3 21.2 24.3C21.8 24.3 22.2 24 22.2 23.6C22.2 23.1 21.7 22.9 21 22.6C20.2 22.3 19.6 21.8 19.6 21C19.6 20.1 20.4 19.3 21.3 19.3C21.9 19.3 22.2 19.6 22.5 19.8L22.4 20Z" fill="#F7DF1E"/>
</svg>
