<!-- assets/images/icon-java.svg -->
<svg width="100" height="100" viewBox="0 0 32 32" xmlns="http://www.w3.org/2000/svg">
  <path d="M16 2C7.163 2 0 9.163 0 18C0 26.837 7.163 34 16 34C24.837 34 32 26.837 32 18C32 9.163 24.837 2 16 2ZM14 24C14.6 24 15 24.4 15 25C15 25.6 14.6 26 14 26H8C7.4 26 7 25.6 7 25C7 24.4 7.4 24 8 24H14ZM21 22H10C9.4 22 9 21.6 9 21C9 20.4 9.4 20 10 20H21C21.6 20 22 20.4 22 21C22 21.6 21.6 22 21 22ZM14 18H11C10.4 18 10 17.6 10 17C10 16.4 10.4 16 11 16H14C14.6 16 15 16.4 15 17C15 17.6 14.6 18 14 18ZM21 16H16C15.4 16 15 15.6 15 15C15 14.4 15.4 14 16 14H21C21.6 14 22 14.4 22 15C22 15.6 21.6 16 21 16ZM18 12H11C10.4 12 10 11.6 10 11C10 10.4 10.4 10 11 10H18C18.6 10 19 10.4 19 11C19 11.6 18.6 12 18 12ZM16 9C16.552 9 17 8.552 17 8C17 7.448 16.552 7 16 7C15.448 7 15 7.448 15 8C15 8.552 15.448 9 16 9Z" fill="#007396"/>
</svg>
