<!-- assets/images/icon-python.svg -->
<svg width="100" height="100" viewBox="0 0 32 32" xmlns="http://www.w3.org/2000/svg">
  <path d="M16 2C7.163 2 0 9.163 0 18C0 26.837 7.163 34 16 34C24.837 34 32 26.837 32 18C32 9.163 24.837 2 16 2ZM12 8C13.1 8 14 8.9 14 10V12H18V11C18 10.4 18.4 10 19 10H23V14H20C18.9 14 18 14.9 18 16V20H13C12.4 20 12 19.6 12 19V16H8V19C8 20.1 8.9 21 10 21H14C14.6 21 15 21.4 15 22V24H11V23C11 22.4 10.6 22 10 22H6V18H9C10.1 18 11 17.1 11 16V12H16C16.6 12 17 11.6 17 11V9H13V10C13 10.6 12.6 11 12 11H8V14H5V11C5 9.9 5.9 9 7 9H11C11.6 9 12 8.6 12 8ZM20 12C20 11.448 20.448 11 21 11C21.552 11 22 11.448 22 12C22 12.552 21.552 13 21 13C20.448 13 20 12.552 20 12ZM19 21C18.4 21 18 21.4 18 22V23C18 24.1 18.9 25 20 25H24C24.6 25 25 24.6 25 24V22H28V25C28 26.1 27.1 27 26 27H22C21.4 27 21 26.6 21 26V24H17C16.4 24 16 23.6 16 23V20H20C20.6 20 21 20.4 21 21Z" fill="#306998"/>
</svg>
